# xmcd
#
# Track frame offsets: 
#        150
#        30376
#        47558
#        73636
#        93491
#        121324
#        146175
#        168626
#        185767
#        222090
#
# Disc length: 3311 seconds
#
# Revision: 0
# Processed by: cddbd v1.5.2PL0 Copyright (c) Steve Scherf et al.
# Submitted via: ExactAudioCopy v0.99pb5
#
DISCID=920ced0a
DTITLE=Re-Flex - Music Re-Action
DYEAR=2010
DGENRE=Rock
TTITLE0=The Politics of Dancing (Original 12" Mix)
TTITLE1=Cut It (Original 12" Mix)
TTITLE2=Praying To The Beat (Original 12" Mix)
TTITLE3=True Lust
TTITLE4=Hurt (12" Mix)
TTITLE5=Hitline (12" Mix)
TTITLE6=Jungle (12" Mix)
TTITLE7=What You Deserve
TTITLE8=Flex It (12" Mix)
TTITLE9=Cruel World
EXTD=
EXTT0=
EXTT1=
EXTT2=
EXTT3=
EXTT4=
EXTT5=
EXTT6=
EXTT7=
EXTT8=
EXTT9=
PLAYORDER=
